<?xml version="1.0" encoding="utf-8"?>
<!-- Generator: Adobe Illustrator 28.1.0, SVG Export Plug-In . SVG Version: 6.00 Build 0)  -->
<svg version="1.1" id="Layer_1" xmlns="http://www.w3.org/2000/svg" xmlns:xlink="http://www.w3.org/1999/xlink" x="0px" y="0px"
	 viewBox="0 0 723 750" style="enable-background:new 0 0 723 750;" xml:space="preserve">
<style type="text/css">
	.st0{fill:#FFFFFF;}
</style>
<g>
	<g>
		<g>
			<path class="st0" d="M188.7,594c42.1,44.5,101.5,71,164.6,71c19.8,0,39.6-2.6,58.8-7.8c11.6-3.1,22.7-7.1,33.3-11.8
				c-83.8,6.7-163.6-39.9-198.8-116.4c-8.4-18.2-28.6-27.9-47.9-22.7c-24.5,6.6-37.3,33.6-26.7,56.7
				C176.9,573.8,182.5,584.1,188.7,594z"/>
			<path class="st0" d="M712.1,418.3c-2.4-25.3-26.9-42.4-51.5-35.8c-19.4,5.2-30.2,23.5-30.2,43.6
				c0.4,171.6-157.9,247.5-210.1,261.5c-22,5.9-44.5,8.9-67,8.9c-24.5,0-48.5-3.5-71.3-10.1c63.9,39,143.1,52.8,221.1,31.9
				C638.5,682,724.7,553.5,712.1,418.3z"/>
		</g>
		<g>
			<path class="st0" d="M57.4,70.7c-14.7,0-21,12.3-21,27.4v50.5H11.6V21.9h12.5c8.2,0,12.3,4.3,12.3,12.5v29.4
				C49,49.3,64.5,45.2,82.9,51.7c13.8,5,20.3,18.3,19.6,39.7v57.2H77.9V98.1C77.9,81.5,71.6,70.7,57.4,70.7z"/>
			<path class="st0" d="M159.1,150.8c-29.8-0.9-44.7-18.3-44.7-51.8s15.1-50.3,45.1-50.5c31.3,0,46,19.2,44.1,57.7h-63.7
				c0.9,15.1,7.5,22.7,19.6,22.7c5.8,0,11.2-2.4,16-7.1c2.2-2.4,5-3.5,8.4-3.5h18.3C196.7,139.3,183.3,150.8,159.1,150.8z
				 M140.3,88.6h37.1c-1.5-13-7.6-19.7-18.3-19.7C148.5,68.9,142.2,75.6,140.3,88.6z"/>
			<path class="st0" d="M240,34v114.6h-24.8V21.9H228C234.6,21.9,240,27.5,240,34z"/>
			<path class="st0" d="M282.4,34v114.6h-24.8V21.9h12.9C277,21.9,282.4,27.5,282.4,34z"/>
			<path class="st0" d="M385.3,99.8c0,33.9-15.1,51-44.9,51s-44.7-17.1-44.7-51c0-34.3,14.9-51.2,44.7-51.2S385.3,65.5,385.3,99.8z
				 M320.8,99.8c0.2,19.2,6.7,28.9,19.4,28.9c12.7,0,19-10.1,19.2-29.6c0-19.2-6.3-28.7-19-28.7C327.3,70.3,320.8,80.2,320.8,99.8z"
				/>
			<path class="st0" d="M146.3,193.5l-27.4,98.5H93.2l-14.9-70.6l-15.6,70.6H36.7l-27-98.5h25.1l15.6,68.4l14.2-68.4h26.3l13.4,68.4
				l13.4-59.2c1.9-6.1,6-9.1,12.1-9.1H146.3z"/>
			<path class="st0" d="M242.9,243.3c0,33.9-15.1,51-44.9,51s-44.7-17.1-44.7-51c0-34.3,14.9-51.2,44.7-51.2S242.9,209,242.9,243.3z
				 M178.5,243.3c0.2,19.2,6.7,28.9,19.4,28.9c12.7,0,19-10.1,19.2-29.6c0-19.2-6.3-28.7-19-28.7C185,213.8,178.5,223.7,178.5,243.3
				z"/>
			<path class="st0" d="M254.9,241.2c0.7-31.8,17.7-47.7,50.7-47.7h3.5v25.7h-8.4c-13.8,0-20.7,7.3-20.7,21.6v51.2h-25.1V241.2z"/>
			<path class="st0" d="M345.4,177.5v114.6h-24.8V165.4h12.9C340,165.4,345.4,171,345.4,177.5z"/>
			<path class="st0" d="M450.3,177.9v71.5c0,29.6-15.5,44.3-46.2,44.1c-30.5-0.6-45.8-17.1-45.8-49.9c0-33.5,13-50.7,39.3-51.6
				c12.3,0,21.8,5,28.1,15.3v-41.9H438C444.7,165.4,450.3,171.2,450.3,177.9z M383.8,242.5c-0.2,19.9,6.5,30,20.7,30
				c14.2,0,21.2-10.1,21.2-30c-0.6-19-7.5-28.3-20.9-28.3C391.4,214.2,384.5,223.5,383.8,242.5z"/>
			<path class="st0" d="M36.4,321v54.6l30.5-35h29.8l-34.1,36.5l34.5,58.5H67.3l-17.5-32.4c-3.2-5.6-6.3-8.4-9.5-8.4
				c-2.6,0.6-3.9,2.2-3.9,4.8v36H11.6V308.9h12.9C31,308.9,36.4,314.5,36.4,321z"/>
			<path class="st0" d="M115.3,308.9c8.2,0,12.1,4.1,11.9,12.1v7.3h-24.8v-19.4H115.3z M115.3,337c8,0,11.9,3.9,11.9,11.9v86.6
				h-24.8V337H115.3z"/>
			<path class="st0" d="M232.1,321.4v71.5c0,29.6-15.5,44.3-46.2,44.1c-30.5-0.6-45.8-17.1-45.8-49.9c0-33.5,13-50.7,39.3-51.6
				c12.3,0,21.8,5,28.1,15.3v-41.9h12.3C226.5,308.9,232.1,314.7,232.1,321.4z M165.6,386c-0.2,19.9,6.5,30,20.7,30
				c14.2,0,21.2-10.1,21.2-30c-0.6-19-7.5-28.3-20.9-28.3C173.3,357.7,166.4,367,165.6,386z"/>
			<path class="st0" d="M286.3,417.7c10.4,0,15.6-3,15.6-9.3c0-5-8.6-9.1-25.5-12.1c-21.8-3.9-33-13.6-33.2-29.1
				c0-21.2,16.8-31.3,39.3-31.7c12.7,0,22.7,2.8,30.2,8.4c7.3,5.8,11.2,13.8,11.7,24h-15.6c-5.8-0.2-9.5-2.2-11-6.1
				c-1.7-4.3-6.7-6.7-14.9-6.7c-9.7,0-14.5,2.6-14.5,7.6c0,5,6.3,8.9,19.2,11.4c16.8,3.4,27.8,7.6,33.2,12.7
				c4.7,4.8,6.9,10.8,6.9,17.5c0,24.2-19,33.2-45.1,33.2c-13.8,0-24.2-3-30.9-8.8c-7.5-5.6-11.2-14.2-11.2-25.5h25.3
				C266.4,414,274.2,417.7,286.3,417.7z"/>
		</g>
	</g>
</g>
</svg>
